<?xml version="1.0" encoding="UTF-8"?>
<svg id="Layer_2" data-name="Layer 2" xmlns="http://www.w3.org/2000/svg" viewBox="0 0 572.01 572.01">
  <defs>
    <style>
      .cls-1 {
        fill: #fff;
      }
    </style>
  </defs>
  <g id="Layer_1-2" data-name="Layer 1">
    <g>
      <circle class="cls-1" cx="286.01" cy="286.01" r="286.01"/>
      <path d="M192.83,198.96c-5.3-8.75,1.47-23.84,13.09-26.3,21.15-8.1,38.33-19.09,53.47-35.7,8.54-7.95,12.49-20.1,21.87-26.86,7.11-4.1,20.21-4.24,24.26-1.17,1.73,1.47,2.13,3.59,2.33,5.96.33,9,.07,29.1.15,42.04.35,9.33-1.08,13.44,4.39,14.93,11.29,1.12,35.85.16,49.28.57,7.76-.46,9.99,4.71,9.79,12,.02,7.19,1.13,18.06-8.49,17.63-11.06.35-37.68,0-47.61.2-3.26.18-7.34-.16-7.29,3.68-.17,13.61-.03,86.07-.07,129.13.39,24.69-1.46,43.48,3.29,67.89,2.81,22.82,29.15,33.87,48.27,21.34,4.78-3.04,8.56-6.88,12.31-7.18,2.8-.34,5.48.94,7.19,3.63,8.39,16.99-12.23,30.76-26.51,37.22-49.86,18.42-121.55,2.68-121.26-58.72-.24-27.94,0-133.84-.09-188.07-.22-6.71,1.44-8.62-7.03-8.86-9.42-1.27-22.73,2.44-30.76-2.67l-.58-.7Z"/>
    </g>
  </g>
</svg>